<svg width="32" height="32" viewBox="0 0 32 32" fill="none" xmlns="http://www.w3.org/2000/svg">
<rect width="32" height="32" rx="10" fill="#1D39BA"/>
<path d="M12.3542 27.025C11.1097 26.5972 9.98194 26.0139 8.97083 25.275C7.95972 24.5361 7.12847 23.6708 6.47708 22.6792C5.82569 21.6875 5.5 20.6278 5.5 19.5V16L10.1667 19.5L8.35833 21.3083C8.92222 22.3 9.81667 23.1556 11.0417 23.875C12.2667 24.5945 13.5306 25.0514 14.8333 25.2458V14.8333H11.3333V12.5H14.8333V11.1292C14.1528 10.8764 13.5938 10.4535 13.1562 9.86043C12.7188 9.26737 12.5 8.59168 12.5 7.83334C12.5 6.86112 12.8403 6.03473 13.5208 5.35418C14.2014 4.67362 15.0278 4.33334 16 4.33334C16.9722 4.33334 17.7986 4.67362 18.4792 5.35418C19.1597 6.03473 19.5 6.86112 19.5 7.83334C19.5 8.59168 19.2812 9.26737 18.8438 9.86043C18.4062 10.4535 17.8472 10.8764 17.1667 11.1292V12.5H20.6667V14.8333H17.1667V25.2458C18.4694 25.0514 19.7333 24.5945 20.9583 23.875C22.1833 23.1556 23.0778 22.3 23.6417 21.3083L21.8333 19.5L26.5 16V19.5C26.5 20.6278 26.1743 21.6875 25.5229 22.6792C24.8715 23.6708 24.0403 24.5361 23.0292 25.275C22.0181 26.0139 20.8903 26.5972 19.6458 27.025C18.4014 27.4528 17.1861 27.6667 16 27.6667C14.8139 27.6667 13.5986 27.4528 12.3542 27.025ZM16 9.00001C16.3306 9.00001 16.6076 8.8882 16.8313 8.66459C17.0549 8.44098 17.1667 8.1639 17.1667 7.83334C17.1667 7.50279 17.0549 7.2257 16.8313 7.00209C16.6076 6.77848 16.3306 6.66668 16 6.66668C15.6694 6.66668 15.3924 6.77848 15.1687 7.00209C14.9451 7.2257 14.8333 7.50279 14.8333 7.83334C14.8333 8.1639 14.9451 8.44098 15.1687 8.66459C15.3924 8.8882 15.6694 9.00001 16 9.00001Z" fill="white"/>
</svg>
