<svg width="32" height="34" viewBox="0 0 32 34" fill="none" xmlns="http://www.w3.org/2000/svg">
<rect width="32" height="32" rx="10" fill="#0F8C0F"/>
<path d="M16.003 27.312C14.2177 27.312 12.649 26.922 11.297 26.142C9.94505 25.3447 8.88771 24.244 8.12505 22.84C7.37971 21.4187 7.00705 19.772 7.00705 17.9C7.00705 16.0453 7.37971 14.416 8.12505 13.012C8.88771 11.5907 9.94505 10.4813 11.297 9.684C12.649 8.88667 14.2177 8.488 16.003 8.488C17.8057 8.488 19.3744 8.88667 20.709 9.684C22.061 10.4813 23.1097 11.5907 23.855 13.012C24.6177 14.416 24.999 16.0453 24.999 17.9C24.999 19.772 24.6177 21.4187 23.855 22.84C23.1097 24.244 22.061 25.3447 20.709 26.142C19.3744 26.922 17.8057 27.312 16.003 27.312ZM16.003 25.232C17.3204 25.232 18.473 24.946 19.461 24.374C20.449 23.7847 21.2204 22.944 21.775 21.852C22.3297 20.7427 22.607 19.4253 22.607 17.9C22.607 16.3747 22.3297 15.066 21.775 13.974C21.2204 12.882 20.449 12.0413 19.461 11.452C18.473 10.8627 17.3204 10.568 16.003 10.568C14.703 10.568 13.5504 10.8627 12.545 11.452C11.557 12.0413 10.7857 12.882 10.231 13.974C9.69371 15.066 9.42505 16.3747 9.42505 17.9C9.42505 19.4253 9.69371 20.7427 10.231 21.852C10.7857 22.944 11.557 23.7847 12.545 24.374C13.5504 24.946 14.703 25.232 16.003 25.232ZM16.705 6.33V3.47H19.409V6.33H16.705ZM12.571 6.33V3.47H15.275V6.33H12.571Z" fill="white"/>
</svg>
