<svg width="32" height="32" viewBox="0 0 32 32" fill="none" xmlns="http://www.w3.org/2000/svg">
<rect width="32" height="32" rx="10" fill="#0F8C0F"/>
<path d="M8.04623 28L14.7542 9.8H17.2502L23.9582 28H21.4882L15.4822 11.23H16.5222L10.5162 28H8.04623ZM11.1662 23.372L11.8162 21.5H20.1882L20.8382 23.372H11.1662ZM16.0282 8.266C15.2829 8.266 14.6329 8.02333 14.0782 7.538C13.5409 7.03533 13.2722 6.368 13.2722 5.536C13.2722 4.68667 13.5409 4.028 14.0782 3.56C14.6329 3.07467 15.2829 2.832 16.0282 2.832C16.7909 2.832 17.4409 3.07467 17.9782 3.56C18.5156 4.028 18.7842 4.68667 18.7842 5.536C18.7842 6.368 18.5156 7.03533 17.9782 7.538C17.4409 8.02333 16.7909 8.266 16.0282 8.266ZM16.0282 6.81C16.3749 6.81 16.6609 6.69733 16.8862 6.472C17.1289 6.22933 17.2502 5.91733 17.2502 5.536C17.2502 5.15467 17.1289 4.85133 16.8862 4.626C16.6609 4.40067 16.3749 4.288 16.0282 4.288C15.6989 4.288 15.4129 4.40067 15.1702 4.626C14.9449 4.85133 14.8322 5.15467 14.8322 5.536C14.8322 5.91733 14.9449 6.22933 15.1702 6.472C15.4129 6.69733 15.6989 6.81 16.0282 6.81Z" fill="white"/>
</svg>
